# Blender 4.4.0
# www.blender.org
mtllib ARCO.mtl
o arco
v 0.035633 -1.000000 -1.000000
v 0.035633 -1.000000 1.000000
v -0.211433 -1.000000 -1.000000
v -0.211433 -1.000000 1.000000
v 0.035633 0.005921 -1.000000
v 0.035633 1.000000 -0.005921
v 0.035633 0.161430 -0.987761
v 0.035633 0.313109 -0.951346
v 0.035633 0.457224 -0.891652
v 0.035633 0.590226 -0.810148
v 0.035633 0.708841 -0.708841
v 0.035633 0.810148 -0.590226
v 0.035633 0.891652 -0.457224
v 0.035633 0.951346 -0.313109
v 0.035633 0.987761 -0.161430
v 0.035633 1.000000 0.005921
v 0.035633 0.005921 1.000000
v 0.035633 0.987761 0.161430
v 0.035633 0.951346 0.313109
v 0.035633 0.891652 0.457224
v 0.035633 0.810148 0.590226
v 0.035633 0.708841 0.708841
v 0.035633 0.590226 0.810148
v 0.035633 0.457224 0.891652
v 0.035633 0.313109 0.951346
v 0.035633 0.161430 0.987761
v -0.211433 1.000000 -0.005921
v -0.211433 0.005921 -1.000000
v -0.211433 0.987761 -0.161430
v -0.211433 0.951346 -0.313109
v -0.211433 0.891652 -0.457224
v -0.211433 0.810148 -0.590226
v -0.211433 0.708841 -0.708841
v -0.211433 0.590226 -0.810148
v -0.211433 0.457224 -0.891652
v -0.211433 0.313109 -0.951346
v -0.211433 0.161430 -0.987761
v -0.211433 0.005921 1.000000
v -0.211433 1.000000 0.005921
v -0.211433 0.161430 0.987761
v -0.211433 0.313109 0.951346
v -0.211433 0.457224 0.891652
v -0.211433 0.590226 0.810148
v -0.211433 0.708841 0.708841
v -0.211433 0.810148 0.590226
v -0.211433 0.891652 0.457224
v -0.211433 0.951346 0.313109
v -0.211433 0.987761 0.161430
v -0.211433 -1.000000 0.627161
v -0.211433 -1.000000 -0.627161
v -0.211433 0.003714 0.627161
v -0.211433 0.101242 0.619486
v -0.211433 0.286753 0.559210
v -0.211433 0.196370 0.596648
v -0.211433 0.444558 0.444558
v -0.211433 0.508093 0.370167
v -0.211433 0.370167 0.508093
v -0.211433 0.559210 0.286753
v -0.211433 0.619486 0.101242
v -0.211433 0.596648 0.196370
v -0.211433 0.596648 -0.196370
v -0.211433 0.619486 -0.101242
v -0.211433 0.627161 -0.003714
v -0.211433 0.627161 0.003714
v -0.211433 0.508093 -0.370167
v -0.211433 0.370167 -0.508093
v -0.211433 0.286753 -0.559210
v -0.211433 0.444558 -0.444558
v -0.211433 0.196370 -0.596648
v -0.211433 0.003714 -0.627161
v -0.211433 0.101242 -0.619486
v -0.211433 0.559210 -0.286753
v 0.035633 -1.000000 0.627161
v 0.035633 -1.000000 -0.627161
v 0.035633 0.003714 -0.627161
v 0.035633 0.444558 -0.444558
v 0.035633 0.508093 -0.370167
v 0.035633 0.286753 -0.559210
v 0.035633 0.101242 -0.619486
v 0.035633 0.196370 -0.596648
v 0.035633 0.370167 -0.508093
v 0.035633 0.003714 0.627161
v 0.035633 0.196370 0.596648
v 0.035633 0.101242 0.619486
v 0.035633 0.370167 0.508093
v 0.035633 0.286753 0.559210
v 0.035633 0.508093 0.370167
v 0.035633 0.444558 0.444558
v 0.035633 0.596648 0.196370
v 0.035633 0.627161 0.003714
v 0.035633 0.619486 0.101242
v 0.035633 0.619486 -0.101242
v 0.035633 0.559210 -0.286753
v 0.035633 0.596648 -0.196370
v 0.035633 0.627161 -0.003714
v 0.035633 0.559210 0.286753
v -0.054487 0.403656 -0.824774
v -0.054487 0.430254 0.819446
v -0.121791 0.403656 -0.824774
v -0.121791 0.430254 0.819446
v -0.054487 0.433409 -0.824774
v -0.054487 0.886066 -0.007532
v -0.054487 0.504220 -0.814712
v -0.054487 0.573288 -0.784775
v -0.054487 0.638911 -0.735700
v -0.054487 0.699474 -0.668695
v -0.054487 0.753486 -0.585409
v -0.054487 0.799617 -0.487895
v -0.054487 0.836730 -0.378552
v -0.054487 0.863912 -0.260074
v -0.054487 0.880493 -0.135377
v -0.054487 0.886066 0.002204
v -0.054487 0.433409 0.819446
v -0.054487 0.880493 0.130049
v -0.054487 0.863912 0.254746
v -0.054487 0.836730 0.373224
v -0.054487 0.799617 0.482567
v -0.054487 0.753486 0.580081
v -0.054487 0.699474 0.663367
v -0.054487 0.638911 0.730372
v -0.054487 0.573288 0.779447
v -0.054487 0.504220 0.809384
v -0.121791 0.886066 -0.007532
v -0.121791 0.433409 -0.824774
v -0.121791 0.880493 -0.135377
v -0.121791 0.863912 -0.260074
v -0.121791 0.836730 -0.378552
v -0.121791 0.799617 -0.487895
v -0.121791 0.753486 -0.585409
v -0.121791 0.699474 -0.668695
v -0.121791 0.638911 -0.735700
v -0.121791 0.573288 -0.784775
v -0.121791 0.504220 -0.814712
v -0.121791 0.433409 0.819446
v -0.121791 0.886066 0.002204
v -0.121791 0.504220 0.809384
v -0.121791 0.573288 0.779447
v -0.121791 0.638911 0.730372
v -0.121791 0.699474 0.663367
v -0.121791 0.753486 0.580081
v -0.121791 0.799617 0.482567
v -0.121791 0.836730 0.373224
v -0.121791 0.863912 0.254746
v -0.121791 0.880493 0.130049
v -0.121791 0.430254 0.512932
v -0.121791 0.403656 -0.518260
v -0.121791 0.432404 0.512932
v -0.121791 0.476814 0.506621
v -0.121791 0.561287 0.457068
v -0.121791 0.520131 0.487846
v -0.121791 0.633144 0.362811
v -0.121791 0.662075 0.301654
v -0.121791 0.599270 0.415045
v -0.121791 0.685351 0.233078
v -0.121791 0.712798 0.080568
v -0.121791 0.702399 0.158773
v -0.121791 0.702399 -0.164101
v -0.121791 0.712798 -0.085896
v -0.121791 0.716293 -0.005717
v -0.121791 0.716293 0.000389
v -0.121791 0.662075 -0.306982
v -0.121791 0.599270 -0.420373
v -0.121791 0.561287 -0.462396
v -0.121791 0.633144 -0.368139
v -0.121791 0.520131 -0.493174
v -0.121791 0.432404 -0.518260
v -0.121791 0.476814 -0.511949
v -0.121791 0.685351 -0.238406
v -0.054487 0.430254 0.512932
v -0.054487 0.403656 -0.518260
v -0.054487 0.432404 -0.518260
v -0.054487 0.633144 -0.368139
v -0.054487 0.662075 -0.306982
v -0.054487 0.561287 -0.462396
v -0.054487 0.476814 -0.511949
v -0.054487 0.520131 -0.493174
v -0.054487 0.599270 -0.420373
v -0.054487 0.432404 0.512932
v -0.054487 0.520131 0.487846
v -0.054487 0.476814 0.506621
v -0.054487 0.599270 0.415045
v -0.054487 0.561287 0.457068
v -0.054487 0.662075 0.301654
v -0.054487 0.633144 0.362811
v -0.054487 0.702399 0.158773
v -0.054487 0.716293 0.000389
v -0.054487 0.712798 0.080568
v -0.054487 0.712798 -0.085896
v -0.054487 0.685351 -0.238406
v -0.054487 0.702399 -0.164101
v -0.054487 0.716293 -0.005717
v -0.054487 0.685351 0.233078
v 0.005550 0.671198 0.402604
v 0.005550 0.819021 0.402604
v 0.005550 0.671198 -0.402604
v 0.005550 0.819021 -0.402604
v -0.221826 0.671198 0.402604
v -0.221826 0.819021 0.402604
v -0.221826 0.671198 -0.402604
v -0.221826 0.819021 -0.402604
vn -0.0000 -0.0000 1.0000
vn -1.0000 -0.0000 -0.0000
vn -0.0000 -1.0000 -0.0000
vn -0.0000 1.0000 -0.0000
vn 1.0000 -0.0000 -0.0000
vn -0.0000 0.9969 0.0785
vn -0.0000 0.9724 0.2334
vn -0.0000 0.9239 0.3827
vn -0.0000 0.8526 0.5225
vn -0.0000 0.7604 0.6494
vn -0.0000 0.6494 0.7604
vn -0.0000 0.5225 0.8526
vn -0.0000 0.3827 0.9239
vn -0.0000 0.2334 0.9724
vn -0.0000 0.0785 0.9969
vn -0.0000 0.9969 -0.0785
vn -0.0000 0.9724 -0.2334
vn -0.0000 0.9239 -0.3827
vn -0.0000 0.8526 -0.5225
vn -0.0000 0.7604 -0.6494
vn -0.0000 0.6494 -0.7604
vn -0.0000 0.5225 -0.8526
vn -0.0000 0.3827 -0.9239
vn -0.0000 0.2334 -0.9724
vn -0.0000 0.0785 -0.9969
vn -0.0000 -0.0000 -1.0000
vn -0.0000 -0.9969 -0.0785
vn -0.0000 -0.9724 -0.2334
vn -0.0000 -0.9239 -0.3827
vn -0.0000 -0.8526 -0.5225
vn -0.0000 -0.7604 -0.6494
vn -0.0000 -0.6494 -0.7604
vn -0.0000 -0.5225 -0.8526
vn -0.0000 -0.3827 -0.9239
vn -0.0000 -0.2334 -0.9724
vn -0.0000 -0.0785 -0.9969
vn -0.0000 -0.9969 0.0785
vn -0.0000 -0.9724 0.2334
vn -0.0000 -0.9239 0.3827
vn -0.0000 -0.8526 0.5225
vn -0.0000 -0.7604 0.6494
vn -0.0000 -0.6494 0.7604
vn -0.0000 -0.5225 0.8526
vn -0.0000 -0.3827 0.9239
vn -0.0000 -0.2334 0.9724
vn -0.0000 -0.0785 0.9969
vn -0.0000 0.9991 0.0436
vn -0.0000 0.9913 0.1318
vn -0.0000 0.9747 0.2236
vn -0.0000 0.9469 0.3214
vn -0.0000 0.9040 0.4276
vn -0.0000 0.8390 0.5441
vn -0.0000 0.7419 0.6705
vn -0.0000 0.5989 0.8008
vn -0.0000 0.3977 0.9175
vn -0.0000 0.1407 0.9901
vn -0.0000 0.9991 -0.0436
vn -0.0000 0.9913 -0.1318
vn -0.0000 0.9747 -0.2236
vn -0.0000 0.9469 -0.3214
vn -0.0000 0.9040 -0.4276
vn -0.0000 0.8390 -0.5441
vn -0.0000 0.7419 -0.6705
vn -0.0000 0.5989 -0.8008
vn -0.0000 0.3977 -0.9175
vn -0.0000 0.1407 -0.9901
vn -0.0000 -0.9991 -0.0436
vn -0.0000 -0.9913 -0.1318
vn -0.0000 -0.9747 -0.2236
vn -0.0000 -0.9469 -0.3214
vn -0.0000 -0.9040 -0.4276
vn -0.0000 -0.8390 -0.5441
vn -0.0000 -0.7419 -0.6705
vn -0.0000 -0.5989 -0.8008
vn -0.0000 -0.3977 -0.9175
vn -0.0000 -0.1407 -0.9901
vn -0.0000 -0.9991 0.0436
vn -0.0000 -0.9913 0.1318
vn -0.0000 -0.9747 0.2236
vn -0.0000 -0.9469 0.3214
vn -0.0000 -0.9040 0.4276
vn -0.0000 -0.8390 0.5441
vn -0.0000 -0.7419 0.6705
vn -0.0000 -0.5989 0.8008
vn -0.0000 -0.3977 0.9175
vn -0.0000 -0.1407 0.9901
vt 0.101040 0.571245
vt 0.128219 0.571245
vt 0.128219 0.633358
vt 0.101040 0.633358
vt 0.155079 0.415779
vt 0.155079 0.416147
vt 0.154749 0.420976
vt 0.153765 0.425687
vt 0.152152 0.430163
vt 0.149949 0.434293
vt 0.147212 0.437977
vt 0.144007 0.441123
vt 0.140414 0.443655
vt 0.136520 0.445508
vt 0.132421 0.446639
vt 0.128219 0.447019
vt 0.101040 0.447019
vt 0.101040 0.435440
vt 0.128160 0.435440
vt 0.130795 0.435202
vt 0.133365 0.434493
vt 0.135807 0.433330
vt 0.138061 0.431743
vt 0.140071 0.429769
vt 0.141788 0.427459
vt 0.143169 0.424869
vt 0.144181 0.422062
vt 0.144798 0.419107
vt 0.145005 0.416078
vt 0.145005 0.415848
vt 0.144798 0.412819
vt 0.144181 0.409864
vt 0.143169 0.407057
vt 0.141788 0.404467
vt 0.140071 0.402157
vt 0.138061 0.400183
vt 0.135807 0.398596
vt 0.133365 0.397433
vt 0.130795 0.396724
vt 0.128160 0.396486
vt 0.101040 0.396486
vt 0.101040 0.384906
vt 0.128219 0.384906
vt 0.132421 0.385287
vt 0.136520 0.386417
vt 0.140414 0.388271
vt 0.144007 0.390803
vt 0.147212 0.393949
vt 0.149949 0.397633
vt 0.152152 0.401763
vt 0.153765 0.406239
vt 0.154749 0.410950
vt 0.047000 0.571245
vt 0.047000 0.559666
vt 0.101040 0.559666
vt 0.047000 0.520711
vt 0.047000 0.509132
vt 0.101040 0.509132
vt 0.101040 0.520711
vt 0.155079 0.540005
vt 0.209119 0.540005
vt 0.209119 0.540373
vt 0.155079 0.540373
vt 0.153765 0.530465
vt 0.154749 0.535176
vt 0.154749 0.545202
vt 0.153765 0.549913
vt 0.152152 0.554389
vt 0.149949 0.558519
vt 0.147212 0.562203
vt 0.144007 0.565349
vt 0.140414 0.567881
vt 0.136520 0.569734
vt 0.132421 0.570865
vt 0.128160 0.559666
vt 0.130795 0.559428
vt 0.133365 0.558719
vt 0.135807 0.557556
vt 0.138061 0.555969
vt 0.140071 0.553995
vt 0.141788 0.551685
vt 0.143169 0.549094
vt 0.144181 0.546288
vt 0.144798 0.543333
vt 0.145005 0.540304
vt 0.145005 0.540074
vt 0.144798 0.537045
vt 0.144181 0.534090
vt 0.143169 0.531283
vt 0.141788 0.528693
vt 0.140071 0.526383
vt 0.138061 0.524409
vt 0.135807 0.522822
vt 0.133365 0.521659
vt 0.130795 0.520950
vt 0.128160 0.520711
vt 0.128219 0.509132
vt 0.132421 0.509513
vt 0.136520 0.510643
vt 0.140414 0.512497
vt 0.144007 0.515029
vt 0.147212 0.518175
vt 0.149949 0.521859
vt 0.152152 0.525989
vt 0.209119 0.545202
vt 0.155079 0.545202
vt 0.209119 0.549913
vt 0.155079 0.549913
vt 0.209119 0.554389
vt 0.155079 0.554389
vt 0.209119 0.558519
vt 0.155079 0.558519
vt 0.209119 0.571245
vt 0.155079 0.571245
vt 0.155079 0.633358
vt 0.144007 0.633358
vt 0.144007 0.571245
vt 0.140414 0.633358
vt 0.140414 0.571245
vt 0.136520 0.633358
vt 0.136520 0.571245
vt 0.132421 0.633358
vt 0.132421 0.571245
vt 0.155079 0.535176
vt 0.209119 0.535176
vt 0.155079 0.530465
vt 0.209119 0.530465
vt 0.155079 0.525989
vt 0.209119 0.525989
vt 0.155079 0.521859
vt 0.209119 0.521859
vt 0.155079 0.509132
vt 0.209119 0.509132
vt 0.155079 0.447019
vt 0.144007 0.509132
vt 0.144007 0.447019
vt 0.140414 0.509132
vt 0.140414 0.447019
vt 0.136520 0.509132
vt 0.136520 0.447019
vt 0.132421 0.509132
vt 0.132421 0.447019
vt 0.105033 0.588786
vt 0.128219 0.588786
vt 0.128219 0.578757
vt 0.105033 0.578757
vt 0.170340 0.540005
vt 0.161615 0.540005
vt 0.161615 0.540373
vt 0.170340 0.540373
vt 0.161615 0.545202
vt 0.170340 0.545202
vt 0.161615 0.549913
vt 0.170340 0.549913
vt 0.161615 0.554389
vt 0.170340 0.554389
vt 0.161615 0.558519
vt 0.170340 0.558519
vt 0.161615 0.571245
vt 0.170340 0.571245
vt 0.155079 0.588786
vt 0.155079 0.578757
vt 0.144007 0.578757
vt 0.144007 0.588786
vt 0.140414 0.578757
vt 0.140414 0.588786
vt 0.136520 0.578757
vt 0.136520 0.588786
vt 0.132421 0.578757
vt 0.132421 0.588786
vt 0.170340 0.535176
vt 0.161615 0.535176
vt 0.170340 0.530465
vt 0.161615 0.530465
vt 0.170340 0.525989
vt 0.161615 0.525989
vt 0.170340 0.521859
vt 0.161615 0.521859
vt 0.170340 0.509132
vt 0.161615 0.509132
vt 0.155079 0.491591
vt 0.144007 0.491591
vt 0.144007 0.501621
vt 0.155079 0.501621
vt 0.140414 0.491591
vt 0.140414 0.501621
vt 0.136520 0.491591
vt 0.136520 0.501621
vt 0.132421 0.491591
vt 0.132421 0.501621
vt 0.128219 0.491591
vt 0.128219 0.501621
vt 0.105033 0.491591
vt 0.105033 0.501621
vt 0.112468 0.675222
vt 0.127408 0.675222
vt 0.127408 0.718530
vt 0.112468 0.718530
vt 0.550353 0.708375
vt 0.548873 0.708348
vt 0.529467 0.706456
vt 0.510595 0.701552
vt 0.492723 0.693756
vt 0.476290 0.683260
vt 0.461701 0.670323
vt 0.449316 0.655263
vt 0.439440 0.638450
vt 0.432315 0.620300
vt 0.428117 0.601259
vt 0.426949 0.581795
vt 0.429291 0.456077
vt 0.475888 0.456945
vt 0.473551 0.582387
vt 0.474283 0.594594
vt 0.476916 0.606536
vt 0.481385 0.617919
vt 0.487579 0.628463
vt 0.495346 0.637908
vt 0.504496 0.646022
vt 0.514802 0.652605
vt 0.526010 0.657494
vt 0.537846 0.660570
vt 0.550017 0.661756
vt 0.550946 0.661773
vt 0.563152 0.661041
vt 0.575094 0.658408
vt 0.586478 0.653940
vt 0.597021 0.647745
vt 0.606467 0.639978
vt 0.614580 0.630829
vt 0.621163 0.620523
vt 0.626052 0.609314
vt 0.629128 0.597479
vt 0.630314 0.585307
vt 0.632651 0.459865
vt 0.679248 0.460733
vt 0.676906 0.586451
vt 0.675014 0.605858
vt 0.670110 0.624730
vt 0.662314 0.642602
vt 0.651818 0.659035
vt 0.638881 0.673623
vt 0.623821 0.686008
vt 0.607009 0.695885
vt 0.588858 0.703010
vt 0.569817 0.707208
vt 0.082764 0.675222
vt 0.082764 0.667148
vt 0.112468 0.667148
vt 0.082764 0.639987
vt 0.082764 0.631914
vt 0.112468 0.631914
vt 0.112468 0.639987
vt 0.142172 0.653440
vt 0.171877 0.653440
vt 0.171877 0.653696
vt 0.142172 0.653696
vt 0.141450 0.646788
vt 0.141991 0.650072
vt 0.141991 0.657063
vt 0.141450 0.660348
vt 0.140563 0.663469
vt 0.139353 0.666349
vt 0.137848 0.668917
vt 0.136086 0.671111
vt 0.134111 0.672876
vt 0.131971 0.674168
vt 0.129718 0.674957
vt 0.127375 0.667148
vt 0.128824 0.666982
vt 0.130237 0.666488
vt 0.131579 0.665677
vt 0.132818 0.664570
vt 0.133923 0.663194
vt 0.134867 0.661583
vt 0.135626 0.659777
vt 0.136182 0.657820
vt 0.136521 0.655760
vt 0.136635 0.653648
vt 0.136635 0.653487
vt 0.136521 0.651375
vt 0.136182 0.649316
vt 0.135626 0.647358
vt 0.134867 0.645552
vt 0.133923 0.643941
vt 0.132818 0.642565
vt 0.131579 0.641459
vt 0.130237 0.640648
vt 0.128824 0.640153
vt 0.127375 0.639987
vt 0.127408 0.631914
vt 0.129718 0.632179
vt 0.131971 0.632967
vt 0.134111 0.634260
vt 0.136086 0.636025
vt 0.137848 0.638218
vt 0.139353 0.640787
vt 0.140563 0.643667
vt 0.171877 0.657063
vt 0.142172 0.657063
vt 0.171877 0.660348
vt 0.142172 0.660348
vt 0.171877 0.663469
vt 0.142172 0.663469
vt 0.171877 0.666349
vt 0.142172 0.666349
vt 0.171877 0.675222
vt 0.142172 0.675222
vt 0.142172 0.718530
vt 0.136086 0.718530
vt 0.136086 0.675222
vt 0.134111 0.718530
vt 0.134111 0.675222
vt 0.131971 0.718530
vt 0.131971 0.675222
vt 0.129718 0.718530
vt 0.129718 0.675222
vt 0.142172 0.650072
vt 0.171877 0.650072
vt 0.142172 0.646788
vt 0.171877 0.646788
vt 0.142172 0.643667
vt 0.171877 0.643667
vt 0.142172 0.640787
vt 0.171877 0.640787
vt 0.142172 0.631914
vt 0.171877 0.631914
vt 0.142172 0.588605
vt 0.136086 0.631914
vt 0.136086 0.588605
vt 0.134111 0.631914
vt 0.134111 0.588605
vt 0.131971 0.631914
vt 0.131971 0.588605
vt 0.129718 0.631914
vt 0.129718 0.588605
vt 0.127408 0.588605
vt 0.112468 0.588605
vt 0.089616 0.814109
vt 0.196883 0.814109
vt 0.196883 0.773741
vt 0.089616 0.773741
vt 0.150561 0.653440
vt 0.145765 0.653440
vt 0.145765 0.653696
vt 0.150561 0.653696
vt 0.145765 0.657063
vt 0.150561 0.657063
vt 0.145765 0.660348
vt 0.150561 0.660348
vt 0.145765 0.663469
vt 0.150561 0.663469
vt 0.145765 0.666349
vt 0.150561 0.666349
vt 0.145765 0.675222
vt 0.150561 0.675222
vt 0.142172 0.687452
vt 0.142172 0.680460
vt 0.136086 0.680460
vt 0.136086 0.687452
vt 0.134111 0.680460
vt 0.134111 0.687452
vt 0.131971 0.680460
vt 0.131971 0.687452
vt 0.129718 0.680460
vt 0.129718 0.687452
vt 0.127408 0.680460
vt 0.127408 0.687452
vt 0.150561 0.650072
vt 0.145765 0.650072
vt 0.150561 0.646788
vt 0.145765 0.646788
vt 0.150561 0.643667
vt 0.145765 0.643667
vt 0.150561 0.640787
vt 0.145765 0.640787
vt 0.150561 0.631914
vt 0.145765 0.631914
vt 0.142172 0.619683
vt 0.136086 0.619683
vt 0.136086 0.626676
vt 0.142172 0.626676
vt 0.134111 0.619683
vt 0.134111 0.626676
vt 0.131971 0.619683
vt 0.131971 0.626676
vt 0.129718 0.619683
vt 0.129718 0.626676
vt 0.127408 0.619683
vt 0.127408 0.626676
vt 0.114663 0.619683
vt 0.114663 0.626676
vt 0.327855 0.657435
vt 0.682396 0.657435
vt 0.682396 0.741450
vt 0.327855 0.741450
vt 0.106485 0.200716
vt 0.165701 0.200716
vt 0.165701 0.284731
vt 0.106485 0.284731
vt 0.361974 0.446288
vt 0.744731 0.469307
vt 0.735409 0.624321
vt 0.352652 0.601303
vt 0.106485 0.368747
vt 0.165701 0.368747
vt 0.165701 0.452762
vt 0.106485 0.452762
vt 0.047269 0.284731
vt 0.047269 0.368747
vt 0.224918 0.284731
vt 0.224918 0.368747
s 0
usemtl Material.004
f 2/1/1 17/2/1 38/3/1 4/4/1
f 39/5/2 27/6/2 29/7/2 30/8/2 31/9/2 32/10/2 33/11/2 34/12/2 35/13/2 36/14/2 37/15/2 28/16/2 3/17/2 50/18/2 70/19/2 71/20/2 69/21/2 67/22/2 66/23/2 68/24/2 65/25/2 72/26/2 61/27/2 62/28/2 63/29/2 64/30/2 59/31/2 60/32/2 58/33/2 56/34/2 55/35/2 57/36/2 53/37/2 54/38/2 52/39/2 51/40/2 49/41/2 4/42/2 38/43/2 40/44/2 41/45/2 42/46/2 43/47/2 44/48/2 45/49/2 46/50/2 47/51/2 48/52/2
f 2/1/3 4/53/3 49/54/3 73/55/3
f 50/56/3 3/57/3 1/58/3 74/59/3
f 6/60/4 27/61/4 39/62/4 16/63/4
f 14/64/5 15/65/5 6/60/5 16/63/5 18/66/5 19/67/5 20/68/5 21/69/5 22/70/5 23/71/5 24/72/5 25/73/5 26/74/5 17/2/5 2/1/5 73/55/5 82/75/5 84/76/5 83/77/5 86/78/5 85/79/5 88/80/5 87/81/5 96/82/5 89/83/5 91/84/5 90/85/5 95/86/5 92/87/5 94/88/5 93/89/5 77/90/5 76/91/5 81/92/5 78/93/5 80/94/5 79/95/5 75/96/5 74/59/5 1/58/5 5/97/5 7/98/5 8/99/5 9/100/5 10/101/5 11/102/5 12/103/5 13/104/5
f 16/63/6 39/62/6 48/105/6 18/106/6
f 18/106/7 48/105/7 47/107/7 19/108/7
f 19/108/8 47/107/8 46/109/8 20/110/8
f 20/110/9 46/109/9 45/111/9 21/112/9
f 21/112/10 45/111/10 44/113/10 22/114/10
f 22/114/11 44/115/11 43/116/11 23/117/11
f 23/117/12 43/116/12 42/118/12 24/119/12
f 24/119/13 42/118/13 41/120/13 25/121/13
f 25/121/14 41/120/14 40/122/14 26/123/14
f 26/123/15 40/122/15 38/3/15 17/2/15
f 27/61/16 6/60/16 15/124/16 29/125/16
f 29/125/17 15/124/17 14/126/17 30/127/17
f 30/127/18 14/126/18 13/128/18 31/129/18
f 31/129/19 13/128/19 12/130/19 32/131/19
f 32/131/20 12/130/20 11/132/20 33/133/20
f 33/134/21 11/132/21 10/135/21 34/136/21
f 34/136/22 10/135/22 9/137/22 35/138/22
f 35/138/23 9/137/23 8/139/23 36/140/23
f 36/140/24 8/139/24 7/141/24 37/142/24
f 37/142/25 7/141/25 5/97/25 28/16/25
f 3/17/26 28/16/26 5/97/26 1/58/26
f 49/143/26 51/144/26 82/145/26 73/146/26
f 63/147/3 95/148/3 90/149/3 64/150/3
f 64/150/27 90/149/27 91/151/27 59/152/27
f 59/152/28 91/151/28 89/153/28 60/154/28
f 60/154/29 89/153/29 96/155/29 58/156/29
f 58/156/30 96/155/30 87/157/30 56/158/30
f 56/158/31 87/157/31 88/159/31 55/160/31
f 55/161/32 88/162/32 85/163/32 57/164/32
f 57/164/33 85/163/33 86/165/33 53/166/33
f 53/166/34 86/165/34 83/167/34 54/168/34
f 54/168/35 83/167/35 84/169/35 52/170/35
f 52/170/36 84/169/36 82/145/36 51/144/36
f 62/171/37 92/172/37 95/148/37 63/147/37
f 61/173/38 94/174/38 92/172/38 62/171/38
f 72/175/39 93/176/39 94/174/39 61/173/39
f 72/175/40 65/177/40 77/178/40 93/176/40
f 68/179/41 76/180/41 77/178/41 65/177/41
f 68/181/42 66/182/42 81/183/42 76/184/42
f 66/182/43 67/185/43 78/186/43 81/183/43
f 67/185/44 69/187/44 80/188/44 78/186/44
f 69/187/45 71/189/45 79/190/45 80/188/45
f 79/190/46 71/189/46 70/191/46 75/192/46
f 70/191/1 50/193/1 74/194/1 75/192/1
f 193/393/2 194/394/2 196/395/2 195/396/2
f 195/397/1 196/398/1 200/399/1 199/400/1
f 199/401/5 200/402/5 198/403/5 197/404/5
f 197/405/26 198/406/26 194/407/26 193/408/26
f 195/409/4 199/400/4 197/405/4 193/410/4
f 200/399/3 196/411/3 194/412/3 198/406/3
usemtl Material.002
f 98/195/1 113/196/1 134/197/1 100/198/1
f 135/199/2 123/200/2 125/201/2 126/202/2 127/203/2 128/204/2 129/205/2 130/206/2 131/207/2 132/208/2 133/209/2 124/210/2 99/211/2 146/212/2 166/213/2 167/214/2 165/215/2 163/216/2 162/217/2 164/218/2 161/219/2 168/220/2 157/221/2 158/222/2 159/223/2 160/224/2 155/225/2 156/226/2 154/227/2 152/228/2 151/229/2 153/230/2 149/231/2 150/232/2 148/233/2 147/234/2 145/235/2 100/236/2 134/237/2 136/238/2 137/239/2 138/240/2 139/241/2 140/242/2 141/243/2 142/244/2 143/245/2 144/246/2
f 98/195/3 100/247/3 145/248/3 169/249/3
f 146/250/3 99/251/3 97/252/3 170/253/3
f 102/254/4 123/255/4 135/256/4 112/257/4
f 110/258/5 111/259/5 102/254/5 112/257/5 114/260/5 115/261/5 116/262/5 117/263/5 118/264/5 119/265/5 120/266/5 121/267/5 122/268/5 113/196/5 98/195/5 169/249/5 178/269/5 180/270/5 179/271/5 182/272/5 181/273/5 184/274/5 183/275/5 192/276/5 185/277/5 187/278/5 186/279/5 191/280/5 188/281/5 190/282/5 189/283/5 173/284/5 172/285/5 177/286/5 174/287/5 176/288/5 175/289/5 171/290/5 170/253/5 97/252/5 101/291/5 103/292/5 104/293/5 105/294/5 106/295/5 107/296/5 108/297/5 109/298/5
f 112/257/47 135/256/47 144/299/47 114/300/47
f 114/300/48 144/299/48 143/301/48 115/302/48
f 115/302/49 143/301/49 142/303/49 116/304/49
f 116/304/50 142/303/50 141/305/50 117/306/50
f 117/306/51 141/305/51 140/307/51 118/308/51
f 118/308/52 140/309/52 139/310/52 119/311/52
f 119/311/53 139/310/53 138/312/53 120/313/53
f 120/313/54 138/312/54 137/314/54 121/315/54
f 121/315/55 137/314/55 136/316/55 122/317/55
f 122/317/56 136/316/56 134/197/56 113/196/56
f 123/255/57 102/254/57 111/318/57 125/319/57
f 125/319/58 111/318/58 110/320/58 126/321/58
f 126/321/59 110/320/59 109/322/59 127/323/59
f 127/323/60 109/322/60 108/324/60 128/325/60
f 128/325/61 108/324/61 107/326/61 129/327/61
f 129/328/62 107/326/62 106/329/62 130/330/62
f 130/330/63 106/329/63 105/331/63 131/332/63
f 131/332/64 105/331/64 104/333/64 132/334/64
f 132/334/65 104/333/65 103/335/65 133/336/65
f 133/336/66 103/335/66 101/291/66 124/337/66
f 99/338/26 124/337/26 101/291/26 97/252/26
f 145/339/26 147/340/26 178/341/26 169/342/26
f 159/343/3 191/344/3 186/345/3 160/346/3
f 160/346/67 186/345/67 187/347/67 155/348/67
f 155/348/68 187/347/68 185/349/68 156/350/68
f 156/350/69 185/349/69 192/351/69 154/352/69
f 154/352/70 192/351/70 183/353/70 152/354/70
f 152/354/71 183/353/71 184/355/71 151/356/71
f 151/357/72 184/358/72 181/359/72 153/360/72
f 153/360/73 181/359/73 182/361/73 149/362/73
f 149/362/74 182/361/74 179/363/74 150/364/74
f 150/364/75 179/363/75 180/365/75 148/366/75
f 148/366/76 180/365/76 178/367/76 147/368/76
f 158/369/77 188/370/77 191/344/77 159/343/77
f 157/371/78 190/372/78 188/370/78 158/369/78
f 168/373/79 189/374/79 190/372/79 157/371/79
f 168/373/80 161/375/80 173/376/80 189/374/80
f 164/377/81 172/378/81 173/376/81 161/375/81
f 164/379/82 162/380/82 177/381/82 172/382/82
f 162/380/83 163/383/83 174/384/83 177/381/83
f 163/383/84 165/385/84 176/386/84 174/384/84
f 165/385/85 167/387/85 175/388/85 176/386/85
f 175/388/86 167/387/86 166/389/86 171/390/86
f 166/389/1 146/391/1 170/392/1 171/390/1
